<svg width="20.000000" height="13.940674" viewBox="0 0 20 13.9407" fill="none" xmlns="http://www.w3.org/2000/svg" xmlns:xlink="http://www.w3.org/1999/xlink">
	<desc>
			Created with Pixso.
	</desc>
	<defs/>
	<path d="M17.9453 3.47412C17.9585 3.62695 17.9585 3.77905 17.9585 3.93091C17.9585 8.58154 13.8337 13.9407 6.29553 13.9407C3.97314 13.9407 1.81561 13.3633 0 12.3606C0.329712 12.3931 0.647278 12.4043 0.990234 12.4043C2.83533 12.4082 4.62817 11.8787 6.07977 10.9014C5.2243 10.8879 4.39502 10.6458 3.70776 10.2085C3.02045 9.77124 2.50946 9.16064 2.24609 8.46191C2.49951 8.49438 2.75391 8.51611 3.02057 8.51611C3.38794 8.51611 3.75739 8.47241 4.10034 8.39648C3.17194 8.2356 2.33716 7.80371 1.73785 7.17432C1.13855 6.54492 0.811829 5.75684 0.813171 4.94409L0.813171 4.90039C1.35968 5.16162 1.99371 5.32495 2.66541 5.34668C2.10266 5.02588 1.6413 4.59033 1.32233 4.07935C1.00342 3.56812 0.836853 2.99731 0.837585 2.41748C0.837585 1.76416 1.0401 1.16504 1.39526 0.642822C2.42535 1.73022 3.71008 2.61963 5.1662 3.25391C6.62238 3.88794 8.21753 4.25269 9.84839 4.32397C9.78528 4.06201 9.74658 3.79028 9.74658 3.51782C9.74634 3.05591 9.85217 2.59839 10.0581 2.17139C10.264 1.74438 10.5659 1.35669 10.9467 1.02979C11.3274 0.703125 11.7794 0.444092 12.2769 0.267334C12.7744 0.0905762 13.3075 -0.000244141 13.8459 0C15.0265 0 16.092 0.424561 16.8411 1.11084C17.7588 0.958496 18.6389 0.671143 19.4423 0.26123C19.1364 1.07397 18.4956 1.76343 17.64 2.19995C18.4539 2.12036 19.2494 1.93652 20 1.65503C19.4394 2.35645 18.7447 2.97144 17.9453 3.47412Z" fill="#FFFFFF" fill-opacity="1.000000" fill-rule="nonzero"/>
</svg>
