<svg width="32" height="32" fill="none" xmlns="http://www.w3.org/2000/svg"><defs><clipPath id="a"><path fill="#fff" fill-opacity="0" d="M0 0h32v32H0z"/></clipPath></defs><g opacity=".3"><path d="M0 0h32v32H0z"/><g clip-path="url(#a)" fill="#FFF"><path d="M16 5.973a5.094 5.094 0 100 10.189 5.094 5.094 0 000-10.189zm0 8.41a3.316 3.316 0 113.316-3.316A3.316 3.316 0 0116 14.373v.01z"/><path d="M16 1.778A10.48 10.48 0 005.53 12.205c0 4.15 2.329 7.626 4.036 10.16l.31.462a88.488 88.488 0 005.458 7.11l.676.792.675-.791a88.7 88.7 0 005.458-7.111l.311-.471c1.698-2.534 4.027-6 4.027-10.151A10.48 10.48 0 0016 1.778zm4.969 19.555l-.32.471c-1.529 2.294-3.556 4.863-4.649 6.134-1.049-1.271-3.12-3.84-4.649-6.134l-.311-.47c-1.573-2.347-3.733-5.556-3.733-9.165a8.695 8.695 0 0117.386 0c0 3.644-2.15 6.853-3.724 9.165z"/></g></g></svg>