<svg width="32.000000" height="32.000000" viewBox="0 0 32 32" fill="none" xmlns="http://www.w3.org/2000/svg" xmlns:xlink="http://www.w3.org/1999/xlink">
	<desc>
			Created with Pixso.
	</desc>
	<defs>
		<clipPath id="clip2_6">
			<rect width="32.000000" height="32.000000" fill="white" fill-opacity="0"/>
		</clipPath>
	</defs>
	<g opacity="0.300000">
		<rect width="32.000000" height="32.000000" fill="#FFFFFF" fill-opacity="0"/>
		<g clip-path="url(#clip2_6)">
			<path d="M16 5.97339C14.9927 5.97339 14.0079 6.27222 13.1703 6.83179C12.3327 7.39136 11.6799 8.18701 11.2944 9.11768C10.9089 10.0483 10.808 11.0723 11.0045 12.0603C11.201 13.0483 11.6862 13.9561 12.3985 14.6682C13.1108 15.3806 14.0184 15.8657 15.0063 16.0623C15.9944 16.2588 17.0184 16.158 17.9492 15.7725C18.8798 15.387 19.6753 14.7341 20.235 13.8965C20.7946 13.0588 21.0933 12.074 21.0933 11.0667C21.0933 9.71582 20.5567 8.42041 19.6016 7.46509C18.6464 6.51001 17.3508 5.97339 16 5.97339ZM16 14.3823C15.3442 14.3823 14.7032 14.1877 14.158 13.8235C13.6127 13.4592 13.1878 12.9414 12.9368 12.3354C12.6859 11.7297 12.6202 11.063 12.7482 10.4199C12.8761 9.77686 13.1919 9.18604 13.6556 8.72217C14.1193 8.25854 14.71 7.94287 15.3531 7.81494C15.9963 7.68701 16.663 7.75269 17.2688 8.00366C17.8746 8.25439 18.3925 8.67944 18.7568 9.22461C19.1211 9.77002 19.3156 10.4109 19.3156 11.0667C19.3132 11.9446 18.9629 12.7856 18.3413 13.4055C17.7198 14.0254 16.8778 14.3733 16 14.3733L16 14.3823Z" fill="#FFFFFF" fill-opacity="1.000000" fill-rule="nonzero"/>
			<path d="M16.0001 1.77783C13.2313 1.78003 10.576 2.87793 8.61407 4.83154C6.65216 6.78516 5.54303 9.43579 5.52893 12.2046C5.52893 16.3557 7.85785 19.8311 9.56451 22.3645L9.87561 22.8267C11.5736 25.2878 13.3952 27.6611 15.3334 29.9377L16.0089 30.729L16.6845 29.9377C18.6224 27.6609 20.444 25.2876 22.1423 22.8267L22.4534 22.3557C24.1511 19.8223 26.48 16.3557 26.48 12.2046C26.4659 9.43433 25.3556 6.78223 23.3917 4.82837C21.4279 2.87451 18.7703 1.77783 16.0001 1.77783ZM20.9689 21.3335L20.6489 21.8044C19.1201 24.0979 17.0934 26.6667 16.0001 27.9377C14.9512 26.6667 12.8801 24.0979 11.3511 21.8044L11.04 21.3335C9.46674 18.9868 7.3067 15.7778 7.3067 12.1689C7.3067 11.0273 7.53156 9.89697 7.96844 8.84204C8.40533 7.78735 9.04565 6.8291 9.85291 6.02173C10.6602 5.2146 11.6185 4.57422 12.6732 4.13745C13.728 3.70044 14.8584 3.47559 16.0001 3.47559C17.1417 3.47559 18.2721 3.70044 19.3268 4.13745C20.3815 4.57422 21.3399 5.2146 22.1472 6.02173C22.9544 6.8291 23.5947 7.78735 24.0316 8.84204C24.4685 9.89697 24.6934 11.0273 24.6934 12.1689C24.6934 15.8135 22.5422 19.0222 20.9689 21.3335Z" fill="#FFFFFF" fill-opacity="1.000000" fill-rule="nonzero"/>
		</g>
	</g>
</svg>
