<svg width="24.000000" height="24.000000" viewBox="0 0 24 24" fill="none" xmlns="http://www.w3.org/2000/svg" xmlns:xlink="http://www.w3.org/1999/xlink">
	<desc>
			Created with Pixso.
	</desc>
	<defs>
		<clipPath id="clip1_83">
			<rect width="24.000000" height="24.000000" fill="white" fill-opacity="0"/>
		</clipPath>
	</defs>
	<rect width="24.000000" height="24.000000" fill="#FFFFFF" fill-opacity="0"/>
	<g clip-path="url(#clip1_83)">
		<path d="M11.999 7.3772C10.7726 7.3772 9.5965 7.86426 8.72931 8.73145C7.86218 9.59863 7.375 10.7749 7.375 12.0012C7.375 13.2275 7.86218 14.4038 8.72931 15.2708C9.5965 16.1379 10.7726 16.6252 11.999 16.6252C13.2253 16.6252 14.4015 16.1379 15.2687 15.2708C16.1358 14.4038 16.623 13.2275 16.623 12.0012C16.623 10.7749 16.1358 9.59863 15.2687 8.73145C14.4015 7.86426 13.2253 7.3772 11.999 7.3772ZM11.999 15.0042C11.2023 15.0042 10.4382 14.6877 9.87488 14.1243C9.31146 13.561 8.995 12.7969 8.995 12.0002C8.995 11.2034 9.31146 10.4395 9.87488 9.87598C10.4382 9.31274 11.2023 8.99609 11.999 8.99609C12.7957 8.99609 13.5598 9.31274 14.1232 9.87598C14.6865 10.4395 15.003 11.2034 15.003 12.0002C15.003 12.7969 14.6865 13.561 14.1232 14.1243C13.5598 14.6877 12.7957 15.0042 11.999 15.0042Z" fill="#FFFFFF" fill-opacity="1.000000" fill-rule="nonzero"/>
		<path d="M17.884 7.20703C17.884 7.80249 17.4014 8.28516 16.806 8.28516C16.2107 8.28516 15.728 7.80249 15.728 7.20703C15.728 6.61182 16.2107 6.12915 16.806 6.12915C17.4014 6.12915 17.884 6.61182 17.884 7.20703Z" fill="#FFFFFF" fill-opacity="1.000000" fill-rule="evenodd"/>
		<path d="M20.533 6.11108C20.3015 5.51343 19.9478 4.97046 19.4943 4.51709C19.041 4.06396 18.4979 3.71045 17.9 3.47925C17.2004 3.21655 16.4612 3.07446 15.714 3.05908C14.751 3.01709 14.446 3.00513 12.004 3.00513C9.56201 3.00513 9.24902 3.00513 8.29401 3.05908C7.54742 3.07373 6.80878 3.21582 6.10999 3.47925C5.51196 3.71021 4.96875 4.06348 4.51532 4.51685C4.06189 4.97021 3.70825 5.51318 3.47699 6.11108C3.21429 6.81079 3.07263 7.55005 3.05804 8.29712C3.01501 9.25903 3.00201 9.56421 3.00201 12.0071C3.00201 14.4492 3.00201 14.76 3.05804 15.717C3.073 16.4651 3.21399 17.2031 3.47699 17.9041C3.70886 18.502 4.06293 19.0447 4.51648 19.4978C4.96997 19.9512 5.51306 20.3047 6.11102 20.5361C6.80847 20.8093 7.54736 20.9614 8.29602 20.9861C9.25903 21.0281 9.56403 21.041 12.006 21.041C14.448 21.041 14.761 21.041 15.716 20.9861C16.4631 20.9709 17.2023 20.8293 17.902 20.5671C18.4998 20.3352 19.0427 19.9814 19.496 19.5281C19.9493 19.0747 20.3032 18.532 20.535 17.9341C20.798 17.2341 20.939 16.4961 20.954 15.748C20.997 14.7861 21.01 14.4812 21.01 12.0381C21.01 9.59521 21.01 9.28516 20.954 8.32812C20.9424 7.57031 20.7999 6.82031 20.533 6.11108ZM19.315 15.6431C19.3086 16.2195 19.2034 16.7903 19.004 17.3311C18.8538 17.72 18.624 18.0732 18.3291 18.3679C18.0342 18.6626 17.681 18.8921 17.292 19.0422C16.7573 19.2405 16.1924 19.3457 15.622 19.353C14.672 19.3972 14.404 19.4082 11.968 19.4082C9.53003 19.4082 9.28101 19.4082 8.31299 19.353C7.74292 19.3462 7.17834 19.241 6.64404 19.0422C6.25372 18.8931 5.89899 18.6638 5.60291 18.3691C5.30676 18.0745 5.07587 17.7207 4.92499 17.3311C4.72845 16.7961 4.62335 16.2319 4.61401 15.6621C4.57098 14.7122 4.56104 14.4441 4.56104 12.0081C4.56104 9.57104 4.56104 9.32202 4.61401 8.35303C4.62048 7.7771 4.72565 7.20654 4.92499 6.66602C5.23004 5.8772 5.85504 5.2561 6.64404 4.9541C7.17859 4.75635 7.74304 4.65112 8.31299 4.64307C9.26404 4.6001 9.53101 4.58813 11.968 4.58813C14.405 4.58813 14.655 4.58813 15.622 4.64307C16.1924 4.6499 16.7574 4.75513 17.292 4.9541C17.681 5.10449 18.0342 5.33423 18.329 5.62915C18.6238 5.92407 18.8538 6.2771 19.004 6.66602C19.2006 7.20117 19.3057 7.76538 19.315 8.33521C19.358 9.28613 19.369 9.55322 19.369 11.9902C19.369 14.426 19.369 14.6882 19.326 15.644L19.315 15.644L19.315 15.6431Z" fill="#FFFFFF" fill-opacity="1.000000" fill-rule="nonzero"/>
	</g>
</svg>
